<svg xmlns="http://www.w3.org/2000/svg" viewBox="221 612 570 130" shape-rendering="geometricPrecision" text-rendering="geometricPrecision">
<g id="wordmark_VeraDoc_pe_as_traced_outlines" fill="#4B5055" fill-rule="evenodd">
<path id="wordmark_V" d="M 245 636 L 272 700 L 282 700 L 310 636 L 300 636 L 278 686 L 276 685 L 255 636 Z"/>
<path id="wordmark_e_first" d="M 330 650 L 321 652 L 311 659 L 306 669 L 306 682 L 309 690 L 318 698 L 328 701 L 340 700 L 349 694 L 350 695 L 350 689 L 348 687 L 343 687 L 340 691 L 337 692 L 326 692 L 319 688 L 315 681 L 317 679 L 353 679 L 354 673 L 352 665 L 345 655 L 340 652 Z M 349 694 L 351 694 Z M 347 688 L 349 688 Z M 342 688 L 344 688 Z M 315 671 L 317 665 L 322 660 L 329 658 L 338 660 L 345 669 L 343 672 Z"/>
<path id="wordmark_r" d="M 391 651 L 384 651 L 375 657 L 373 651 L 365 651 L 366 700 L 374 700 L 375 668 L 379 662 L 383 660 L 392 659 Z"/>
<path id="wordmark_a" d="M 402 655 L 400 658 L 403 663 L 412 659 L 423 659 L 429 663 L 431 669 L 427 672 L 407 673 L 399 679 L 397 687 L 399 693 L 403 698 L 413 701 L 423 700 L 430 697 L 431 700 L 440 700 L 440 667 L 437 658 L 433 654 L 426 651 L 412 651 Z M 407 683 L 409 680 L 416 678 L 431 679 L 430 687 L 423 693 L 410 692 L 407 689 Z"/>
<path id="wordmark_D" d="M 457 636 L 457 700 L 493 700 L 502 697 L 506 694 L 507 695 L 515 685 L 519 671 L 517 657 L 512 648 L 504 641 L 495 637 Z M 469 644 L 493 645 L 499 648 L 506 655 L 509 663 L 509 673 L 506 681 L 501 687 L 496 690 L 488 692 L 467 691 L 467 646 Z"/>
<path id="wordmark_o" d="M 545 651 L 539 653 L 530 661 L 526 671 L 526 681 L 529 689 L 535 696 L 543 700 L 555 701 L 562 699 L 571 693 L 577 681 L 577 672 L 574 663 L 567 655 L 558 651 Z M 546 659 L 559 660 L 566 668 L 566 684 L 562 689 L 557 692 L 543 691 L 536 682 L 536 669 L 539 664 Z"/>
<path id="wordmark_c" d="M 608 650 L 599 652 L 593 655 L 588 660 L 584 668 L 583 679 L 587 690 L 593 696 L 601 700 L 612 701 L 624 696 L 629 689 L 622 686 L 614 692 L 601 691 L 594 684 L 592 676 L 593 670 L 595 666 L 604 659 L 614 659 L 622 665 L 628 663 L 629 661 L 623 654 L 617 651 Z"/>
<path id="wordmark_period" d="M 647 688 L 639 688 L 637 690 L 636 696 L 639 700 L 643 701 L 647 699 Z"/>
<path id="wordmark_p" d="M 697 652 L 681 651 L 671 657 L 669 651 L 661 651 L 661 718 L 670 718 L 671 694 L 677 699 L 690 701 L 703 696 L 707 691 L 711 682 L 711 670 L 706 659 Z M 678 660 L 690 659 L 696 662 L 700 667 L 702 672 L 702 679 L 700 685 L 694 691 L 686 693 L 679 692 L 672 686 L 670 682 L 670 670 L 671 667 Z"/>
<path id="wordmark_e_final" d="M 736 651 L 728 655 L 721 663 L 718 674 L 720 686 L 722 690 L 731 698 L 741 701 L 755 699 L 763 693 L 761 687 L 758 687 L 750 692 L 738 692 L 734 690 L 728 682 L 730 679 L 766 679 L 767 674 L 765 665 L 761 658 L 753 652 L 743 650 Z M 760 688 L 762 688 Z M 727 672 L 732 662 L 742 658 L 751 660 L 756 665 L 758 670 L 756 672 Z"/>
</g>
</svg>
