<svg xmlns="http://www.w3.org/2000/svg" width="1024" height="1024" viewBox="0 0 1024 1024" shape-rendering="geometricPrecision" text-rendering="geometricPrecision">
<defs>
<linearGradient id="featherGradient" x1="459" y1="545" x2="602" y2="296" gradientUnits="userSpaceOnUse">
<stop offset="0" stop-color="#00427E"/>
<stop offset="0.36" stop-color="#084C85"/>
<stop offset="0.58" stop-color="#604D80"/>
<stop offset="0.78" stop-color="#B4494A"/>
<stop offset="1" stop-color="#F1460B"/>
</linearGradient>
</defs>
<rect x="0" y="0" width="1024" height="1024" fill="#FFFFFF"/>
<path id="feather_symbol" d="M 603 295 L 601 295 L 598 300 L 581 317 L 531 355 L 526 364 L 523 377 L 521 367 L 522 366 L 520 366 L 510 375 L 490 397 L 476 417 L 472 429 L 472 438 L 471 439 L 470 437 L 469 440 L 467 438 L 467 435 L 458 452 L 453 470 L 452 480 L 455 504 L 461 520 L 466 530 L 468 531 L 470 526 L 470 518 L 474 517 L 474 515 L 471 515 L 471 512 L 474 510 L 472 509 L 474 506 L 474 499 L 477 494 L 480 480 L 485 470 L 490 472 L 483 493 L 481 494 L 482 497 L 478 508 L 475 523 L 473 525 L 474 528 L 470 548 L 469 564 L 465 567 L 455 570 L 443 570 L 433 566 L 440 572 L 449 576 L 461 576 L 474 572 L 513 550 L 523 547 L 536 547 L 542 549 L 539 546 L 529 542 L 515 542 L 505 545 L 473 563 L 471 562 L 475 542 L 479 532 L 487 526 L 511 513 L 521 505 L 523 505 L 534 493 L 543 477 L 558 436 L 534 443 L 529 442 L 562 425 L 574 411 L 591 380 L 594 372 L 580 377 L 577 376 L 595 364 L 595 362 L 598 360 L 600 356 L 605 332 L 605 306 Z M 489 469 L 491 469 Z M 490 467 L 491 466 L 492 468 L 491 469 Z M 492 463 L 493 465 L 490 465 L 489 468 L 486 470 L 486 464 L 489 462 Z M 488 460 L 492 460 L 490 462 Z M 493 459 L 494 458 L 495 460 L 494 461 Z M 490 458 L 492 458 Z M 490 456 L 494 456 L 492 458 Z M 496 454 L 497 456 L 495 459 L 494 456 Z M 472 455 L 474 455 Z M 496 452 L 497 451 L 498 453 L 497 454 Z M 497 451 L 499 451 Z M 492 451 L 494 450 L 496 452 L 493 453 Z M 494 450 L 496 450 Z M 493 449 L 495 449 Z M 501 447 L 499 450 L 494 448 L 499 446 Z M 471 439 L 473 445 L 472 454 L 469 447 L 470 444 L 468 443 Z M 525 402 L 525 405 L 521 409 L 502 445 L 497 446 L 496 443 L 500 439 L 500 436 L 502 435 L 502 432 L 505 430 L 504 428 L 509 423 L 509 420 L 515 414 L 520 404 Z M 529 394 L 531 396 L 526 403 L 523 400 L 526 399 L 526 396 Z M 528 393 L 530 393 Z M 536 386 L 537 388 L 531 396 L 529 392 L 533 387 Z M 542 378 L 543 380 L 537 386 L 535 384 Z M 545 375 L 547 375 Z M 544 374 L 546 376 L 543 379 L 542 376 Z M 546 374 L 548 374 Z M 546 372 L 548 371 L 549 373 L 548 374 Z M 548 371 L 550 371 Z M 549 370 L 551 370 Z M 550 369 L 552 369 Z M 548 369 L 550 369 Z M 551 368 L 553 368 Z M 549 368 L 551 368 Z M 550 367 L 552 367 Z M 554 364 L 556 364 Z M 555 363 L 557 363 Z M 557 360 L 559 360 Z M 558 359 L 559 357 L 561 358 L 559 360 Z M 560 356 L 561 355 L 562 357 L 561 358 Z M 562 354 L 564 354 Z" fill="url(#featherGradient)" fill-rule="evenodd"/>
<path id="small_left_upper_water_stroke" d="M 458 564 L 453 558 L 447 555 L 430 554 L 415 559 L 403 569 L 418 563 L 434 560 L 448 561 L 458 566 Z" fill="#8CD0DF" fill-rule="evenodd"/>
<path id="main_lower_water_stroke" d="M 546 565 L 540 561 L 533 559 L 519 559 L 506 563 L 485 575 L 467 583 L 447 584 L 437 579 L 437 581 L 445 587 L 453 590 L 469 590 L 484 585 L 510 570 L 523 565 Z" fill="#8CD0DF" fill-rule="evenodd"/>
<g id="wordmark_VeraDoc_pe_as_traced_outlines" fill="#4B5055" fill-rule="evenodd">
<path id="wordmark_V" d="M 245 636 L 272 700 L 282 700 L 310 636 L 300 636 L 278 686 L 276 685 L 255 636 Z"/>
<path id="wordmark_e_first" d="M 330 650 L 321 652 L 311 659 L 306 669 L 306 682 L 309 690 L 318 698 L 328 701 L 340 700 L 349 694 L 350 695 L 350 689 L 348 687 L 343 687 L 340 691 L 337 692 L 326 692 L 319 688 L 315 681 L 317 679 L 353 679 L 354 673 L 352 665 L 345 655 L 340 652 Z M 349 694 L 351 694 Z M 347 688 L 349 688 Z M 342 688 L 344 688 Z M 315 671 L 317 665 L 322 660 L 329 658 L 338 660 L 345 669 L 343 672 Z"/>
<path id="wordmark_r" d="M 391 651 L 384 651 L 375 657 L 373 651 L 365 651 L 366 700 L 374 700 L 375 668 L 379 662 L 383 660 L 392 659 Z"/>
<path id="wordmark_a" d="M 402 655 L 400 658 L 403 663 L 412 659 L 423 659 L 429 663 L 431 669 L 427 672 L 407 673 L 399 679 L 397 687 L 399 693 L 403 698 L 413 701 L 423 700 L 430 697 L 431 700 L 440 700 L 440 667 L 437 658 L 433 654 L 426 651 L 412 651 Z M 407 683 L 409 680 L 416 678 L 431 679 L 430 687 L 423 693 L 410 692 L 407 689 Z"/>
<path id="wordmark_D" d="M 457 636 L 457 700 L 493 700 L 502 697 L 506 694 L 507 695 L 515 685 L 519 671 L 517 657 L 512 648 L 504 641 L 495 637 Z M 469 644 L 493 645 L 499 648 L 506 655 L 509 663 L 509 673 L 506 681 L 501 687 L 496 690 L 488 692 L 467 691 L 467 646 Z"/>
<path id="wordmark_o" d="M 545 651 L 539 653 L 530 661 L 526 671 L 526 681 L 529 689 L 535 696 L 543 700 L 555 701 L 562 699 L 571 693 L 577 681 L 577 672 L 574 663 L 567 655 L 558 651 Z M 546 659 L 559 660 L 566 668 L 566 684 L 562 689 L 557 692 L 543 691 L 536 682 L 536 669 L 539 664 Z"/>
<path id="wordmark_c" d="M 608 650 L 599 652 L 593 655 L 588 660 L 584 668 L 583 679 L 587 690 L 593 696 L 601 700 L 612 701 L 624 696 L 629 689 L 622 686 L 614 692 L 601 691 L 594 684 L 592 676 L 593 670 L 595 666 L 604 659 L 614 659 L 622 665 L 628 663 L 629 661 L 623 654 L 617 651 Z"/>
<path id="wordmark_period" d="M 647 688 L 639 688 L 637 690 L 636 696 L 639 700 L 643 701 L 647 699 Z"/>
<path id="wordmark_p" d="M 697 652 L 681 651 L 671 657 L 669 651 L 661 651 L 661 718 L 670 718 L 671 694 L 677 699 L 690 701 L 703 696 L 707 691 L 711 682 L 711 670 L 706 659 Z M 678 660 L 690 659 L 696 662 L 700 667 L 702 672 L 702 679 L 700 685 L 694 691 L 686 693 L 679 692 L 672 686 L 670 682 L 670 670 L 671 667 Z"/>
<path id="wordmark_e_final" d="M 736 651 L 728 655 L 721 663 L 718 674 L 720 686 L 722 690 L 731 698 L 741 701 L 755 699 L 763 693 L 761 687 L 758 687 L 750 692 L 738 692 L 734 690 L 728 682 L 730 679 L 766 679 L 767 674 L 765 665 L 761 658 L 753 652 L 743 650 Z M 760 688 L 762 688 Z M 727 672 L 732 662 L 742 658 L 751 660 L 756 665 L 758 670 L 756 672 Z"/>
</g>
</svg>