<svg xmlns="http://www.w3.org/2000/svg" width="1024" height="1024" viewBox="0 0 1024 1024">
  <defs>
    <linearGradient id="featherGradient" x1="430" y1="752" x2="716" y2="215" gradientUnits="userSpaceOnUse">
      <stop offset="0%" stop-color="#00427E"/>
      <stop offset="34%" stop-color="#084C85"/>
      <stop offset="57%" stop-color="#604D80"/>
      <stop offset="78%" stop-color="#B4494A"/>
      <stop offset="100%" stop-color="#F1460B"/>
    </linearGradient>
    <linearGradient id="waveGradient" x1="313" y1="781" x2="602" y2="741" gradientUnits="userSpaceOnUse">
      <stop offset="0%" stop-color="#8CD0DF" stop-opacity="0.88"/>
      <stop offset="55%" stop-color="#8CD0DF" stop-opacity="0.98"/>
      <stop offset="100%" stop-color="#77C7D9" stop-opacity="0.84"/>
    </linearGradient>
  </defs>
  <!-- No background rectangle. Canvas must remain transparent. -->
  <path id="feather-body-with-transparent-internal-cuts" d="M 715 215 C 713.7 210, 715.7 211.8, 713 215 C 710.3 218.2, 706.2 226.3, 699 234 C 691.8 241.7, 687.7 246.8, 670 261 C 652.3 275.2, 610.2 305.5, 593 319 C 575.8 332.5, 572.5 335.5, 567 342 C 561.5 348.5, 562.2 351.3, 560 358 C 557.8 364.7, 555.2 381.7, 554 382 C 552.8 382.3, 553.5 364.2, 553 360 C 552.5 355.8, 554.8 354.3, 551 357 C 547.2 359.7, 539.7 366.2, 530 376 C 520.3 385.8, 503.8 403, 493 416 C 482.2 429, 471.2 444.8, 465 454 C 458.8 463.2, 458.2 464.8, 456 471 C 453.8 477.2, 452.5 482.7, 452 491 C 451.5 499.3, 452.3 513.2, 453 521 C 453.7 528.8, 456 535.3, 456 538 C 456 540.7, 455 542.2, 453 537 C 451 531.8, 445.5 513.3, 444 507 C 442.5 500.7, 444.7 500.5, 444 499 C 443.3 497.5, 443.2 493, 440 498 C 436.8 503, 428.8 519.5, 425 529 C 421.2 538.5, 419 546.8, 417 555 C 415 563.2, 413.7 568.7, 413 578 C 412.3 587.3, 412 600.7, 413 611 C 414 621.3, 414.2 626.7, 419 640 C 423.8 653.3, 437.5 682.8, 442 691 C 446.5 699.2, 444.3 696, 446 689 C 447.7 682, 447.3 668, 452 649 C 456.7 630, 468.3 592.3, 474 575 C 479.7 557.7, 479.7 558.7, 486 545 C 492.3 531.3, 504.7 506.7, 512 493 C 519.3 479.3, 521.3 476, 530 463 C 538.7 450, 552 430.7, 564 415 C 576 399.3, 588.3 384, 602 369 C 615.7 354, 646 323.7, 646 325 C 646 326.3, 614.7 361.3, 602 377 C 589.3 392.7, 582.3 401, 570 419 C 557.7 437, 539.3 465.3, 528 485 C 516.7 504.7, 509.7 519.8, 502 537 C 494.3 554.2, 488.5 569.2, 482 588 C 475.5 606.8, 468.2 630.3, 463 650 C 457.8 669.7, 453.7 688.2, 451 706 C 448.3 723.8, 450.8 747, 447 757 C 443.2 767, 434.7 764, 428 766 C 421.3 768, 414 769, 407 769 C 400 769, 391.2 767.5, 386 766 C 380.8 764.5, 377.7 760.5, 376 760 C 374.3 759.5, 374.3 761, 376 763 C 377.7 765, 380.2 768.8, 386 772 C 391.8 775.2, 402.7 780.7, 411 782 C 419.3 783.3, 426 782.7, 436 780 C 446 777.3, 457.8 772.8, 471 766 C 484.2 759.2, 503.8 745.3, 515 739 C 526.2 732.7, 530.7 730.7, 538 728 C 545.3 725.3, 552.3 723.8, 559 723 C 565.7 722.2, 572.2 722.3, 578 723 C 583.8 723.7, 592.8 727.7, 594 727 C 595.2 726.3, 589 721.3, 585 719 C 581 716.7, 578.2 714, 570 713 C 561.8 712, 547 711, 536 713 C 525 715, 518 717.8, 504 725 C 490 732.2, 461 751, 452 756 C 443 761, 447.7 765.7, 450 755 C 452.3 744.3, 451.2 709.7, 466 692 C 480.8 674.3, 524.2 658.2, 539 649 C 553.8 639.8, 548.7 642.8, 555 637 C 561.3 631.2, 570 623.8, 577 614 C 584 604.2, 588.8 597.2, 597 578 C 605.2 558.8, 621.7 512.3, 626 499 C 630.3 485.7, 624.5 497.5, 623 498 C 621.5 498.5, 626.5 499, 617 502 C 607.5 505, 575 513.8, 566 516 C 557 518.2, 551.2 521.8, 563 515 C 574.8 508.2, 622.7 483.8, 637 475 C 651.3 466.2, 641 474.2, 649 462 C 657 449.8, 677 417.3, 685 402 C 693 386.7, 699.5 373.7, 697 370 C 694.5 366.3, 676 378.2, 670 380 C 664 381.8, 656.2 385.5, 661 381 C 665.8 376.5, 691.7 358.7, 699 353 C 706.3 347.3, 703 350.2, 705 347 C 707 343.8, 708.3 344.7, 711 334 C 713.7 323.3, 719.3 297.8, 721 283 C 722.7 268.2, 722 256.3, 721 245 C 720 233.7, 716.3 220, 715 215 Z" fill="url(#featherGradient)" fill-rule="nonzero"/>
  <path id="left-detached-wave" d="M 425 758 C 423.8 756, 421.2 751, 418 748 C 414.8 745, 410.3 742, 406 740 C 401.7 738, 397.7 736.7, 392 736 C 386.3 735.3, 378.2 735.3, 372 736 C 365.8 736.7, 361 738, 355 740 C 349 742, 341.5 745, 336 748 C 330.5 751, 325.8 754.8, 322 758 C 318.2 761.2, 314.2 765.3, 313 767 C 311.8 768.7, 311.3 769.5, 315 768 C 318.7 766.5, 325.7 761, 335 758 C 344.3 755, 360.8 751.3, 371 750 C 381.2 748.7, 388.8 749.3, 396 750 C 403.2 750.7, 409.5 752.3, 414 754 C 418.5 755.7, 421.2 759, 423 760 C 424.8 761, 424.7 760.3, 425 760 C 425.3 759.7, 426.2 760, 425 758 Z" fill="url(#waveGradient)" fill-rule="nonzero"/>
  <path id="main-lower-wave" d="M 602 758 C 598.8 756, 586.5 749.7, 582 748 C 577.5 746.3, 576.7 748.3, 575 748 C 573.3 747.7, 576 746.3, 572 746 C 568 745.7, 560.2 744.3, 551 746 C 541.8 747.7, 529 750.7, 517 756 C 505 761.3, 491.3 771.7, 479 778 C 466.7 784.3, 453.8 790.7, 443 794 C 432.2 797.3, 421.2 797.7, 414 798 C 406.8 798.3, 405 797.7, 400 796 C 395 794.3, 387.2 789.2, 384 788 C 380.8 786.8, 380 787.3, 381 789 C 382 790.7, 385.2 794.8, 390 798 C 394.8 801.2, 405 806, 410 808 C 415 810, 414.8 809.7, 420 810 C 425.2 810.3, 434.7 810.7, 441 810 C 447.3 809.3, 451.7 808, 458 806 C 464.3 804, 469.2 803, 479 798 C 488.8 793, 504.8 782.3, 517 776 C 529.2 769.7, 542.5 763.3, 552 760 C 561.5 756.7, 567.7 756.5, 574 756 C 580.3 755.5, 585.5 756.3, 590 757 C 594.5 757.7, 599 759.8, 601 760 C 603 760.2, 605.2 760, 602 758 Z" fill="url(#waveGradient)" fill-rule="nonzero"/>
</svg>